<?xml version="1.0" standalone="no"?>
<!DOCTYPE svg PUBLIC "-//W3C//DTD SVG 20010904//EN"
 "http://www.w3.org/TR/2001/REC-SVG-20010904/DTD/svg10.dtd">
<svg version="1.0" xmlns="http://www.w3.org/2000/svg"
 width="769.000000pt" height="850.000000pt" viewBox="0 0 769.000000 850.000000"
 preserveAspectRatio="xMidYMid meet">

<g transform="translate(0.000000,850.000000) scale(0.100000,-0.100000)"
fill="#000000" stroke="none">
<path d="M2010 8471 c-47 -10 -107 -27 -135 -36 -418 -143 -716 -702 -629
-1178 9 -50 13 -92 8 -96 -5 -4 -67 -50 -139 -101 -194 -139 -198 -145 -150
-190 23 -22 30 -23 122 -17 57 3 127 15 168 28 66 21 92 24 158 21 20 -2 27
-7 27 -23 0 -35 19 -59 48 -59 34 0 117 -48 156 -89 24 -25 26 -31 12 -31 -21
0 -66 -44 -66 -65 0 -13 4 -13 28 4 47 33 85 34 116 2 l27 -28 -31 -13 c-94
-39 -104 -281 -17 -444 40 -75 64 -92 120 -80 36 8 45 15 65 54 15 30 22 60
21 95 -1 27 -3 39 -6 25 -2 -14 -6 -39 -9 -57 -2 -18 -16 -46 -30 -63 -21 -24
-31 -29 -52 -24 -99 24 -144 103 -150 264 -5 122 10 174 53 190 52 20 74 13
108 -36 17 -25 33 -41 35 -35 2 6 -24 90 -57 188 -33 97 -58 179 -56 182 8 7
195 -18 420 -56 116 -19 211 -36 212 -37 1 -1 -18 -41 -43 -89 -39 -79 -101
-253 -92 -262 2 -2 41 30 87 71 104 92 140 114 194 121 94 12 115 8 175 -37
43 -33 50 -36 36 -15 -15 23 -15 25 0 25 9 0 16 4 16 9 0 6 9 9 19 8 12 -1 17
-6 13 -16 -3 -9 -1 -12 6 -8 12 8 62 -12 62 -25 0 -4 12 -8 26 -8 14 0 23 -4
19 -10 -6 -10 4 -13 35 -12 8 0 42 8 75 17 33 9 65 18 70 19 25 7 52 21 80 40
52 37 149 84 180 88 17 2 34 8 38 13 4 6 6 -46 5 -115 l-3 -125 -48 -73 c-109
-168 -95 -292 34 -309 26 -4 40 -12 44 -24 4 -11 10 -17 15 -14 5 3 14 -14 21
-37 17 -66 56 -136 80 -143 37 -12 86 5 131 44 l43 39 1 153 c1 180 28 339 67
398 87 130 183 194 300 198 78 2 88 9 157 98 75 98 101 248 61 354 -26 70 -97
166 -150 205 -25 19 -73 47 -107 64 -55 28 -74 47 -191 194 -297 372 -625 629
-973 761 -234 89 -373 118 -595 123 -150 3 -194 1 -265 -15z m63 -387 c141
-36 239 -116 311 -253 48 -92 63 -179 48 -278 -13 -82 -53 -183 -73 -183 -6 0
-27 -13 -46 -30 -39 -34 -43 -35 -178 -14 -55 8 -186 18 -291 21 l-190 6 -52
69 c-57 77 -81 141 -89 238 -16 195 119 386 304 429 62 15 191 12 256 -5z
m677 -1390 c0 -2 -17 -3 -37 -2 -24 0 -58 -9 -90 -26 -29 -14 -53 -24 -53 -21
0 3 27 18 59 34 39 18 70 26 90 23 17 -2 31 -6 31 -8z"/>
<path d="M1705 7883 c-43 -103 -115 -316 -115 -342 0 -21 106 -125 119 -117 4
3 11 43 14 88 6 81 32 227 43 237 3 3 9 -1 14 -9 28 -49 107 -154 115 -154 6
0 33 33 61 73 28 41 54 73 59 73 5 0 30 -62 56 -136 57 -165 79 -210 102 -214
19 -4 116 76 117 96 0 7 -18 43 -41 80 -22 37 -78 142 -124 235 l-84 167 -55
-67 c-30 -38 -64 -79 -76 -93 l-20 -25 -36 40 c-20 22 -53 66 -74 98 l-38 58
-37 -88z"/>
<path d="M1474 6570 c0 -118 -4 -212 -12 -258 -22 -116 2 -167 31 -69 27 87
29 155 12 297 -27 225 -33 231 -31 30z"/>
<path d="M2585 6536 c-72 -33 -114 -109 -122 -222 -16 -214 150 -408 277 -322
50 34 90 104 97 170 8 83 -22 244 -55 292 -55 80 -133 112 -197 82z m130 -48
c14 -6 38 -39 60 -84 30 -60 38 -88 42 -152 6 -77 -5 -122 -28 -122 -6 0 -22
-14 -36 -30 -55 -66 -118 -74 -164 -22 -21 23 -21 24 -2 9 32 -27 97 -33 129
-13 38 25 64 90 64 162 0 79 -22 143 -66 185 -82 79 -180 17 -200 -128 -5 -40
-1 -62 19 -111 13 -34 20 -62 15 -62 -27 0 -67 194 -54 264 9 46 58 103 100
115 34 11 84 6 121 -11z m-45 -99 c15 -27 -5 -51 -39 -47 -19 2 -27 10 -29 27
-6 41 48 57 68 20z"/>
<path d="M1743 6498 c-27 -30 -34 -56 -34 -123 0 -166 102 -287 162 -192 17
27 20 45 16 122 -4 100 -25 156 -73 194 -34 27 -46 26 -71 -1z m77 -49 c12
-22 7 -49 -9 -49 -16 0 -41 30 -41 51 0 26 36 25 50 -2z"/>
<path d="M3920 6338 c-25 -27 -27 -53 -2 -43 40 17 87 23 103 14 24 -12 29
-11 29 5 0 44 -95 61 -130 24z"/>
<path d="M1408 6085 c-26 -49 -46 -130 -53 -207 -6 -71 -5 -72 11 -48 10 14
46 53 81 87 60 60 62 63 52 93 -7 20 -16 29 -25 26 -9 -3 -20 10 -32 37 l-19
42 -15 -30z"/>
<path d="M2915 5915 c-85 -70 -159 -108 -261 -134 -108 -28 -182 -35 -226 -23
l-37 10 -6 -46 c-18 -152 -45 -204 -160 -317 -86 -84 -158 -129 -266 -165 -81
-27 -86 -40 -18 -40 34 0 64 13 96 42 20 19 23 19 39 4 56 -56 167 -79 241
-50 27 10 57 17 68 16 16 -1 17 0 3 6 -14 6 -12 12 16 45 l31 37 48 -16 c60
-20 167 -15 220 11 47 22 87 79 94 134 3 23 10 41 16 41 6 0 7 3 3 7 -3 4 17
14 46 23 138 43 211 134 210 261 0 73 -28 152 -66 188 l-23 22 -68 -56z"/>
<path d="M3930 5770 c-33 -18 -122 -36 -200 -42 -31 -3 -39 -10 -67 -58 -88
-152 -196 -296 -213 -285 -5 3 -23 -12 -41 -34 -17 -22 -34 -40 -38 -39 -16 2
-31 -3 -43 -15 -17 -16 -166 -92 -231 -118 -29 -11 -86 -36 -127 -56 -41 -19
-122 -55 -180 -80 -98 -41 -258 -123 -288 -146 -10 -8 -10 -12 -1 -18 7 -4
-14 -12 -47 -19 -45 -10 -83 -10 -162 -1 -113 12 -181 36 -249 88 -24 18 -47
33 -52 33 -5 0 -43 -31 -84 -70 -48 -45 -107 -117 -168 -205 -92 -135 -109
-156 -109 -136 0 6 -26 28 -58 49 -59 41 -131 112 -152 153 -12 22 -14 21 -27
-30 -18 -71 -78 -198 -138 -291 -104 -163 -171 -229 -288 -287 l-58 -29 75
-85 c145 -166 336 -302 483 -345 70 -20 170 -14 261 17 74 25 190 99 258 163
35 34 50 43 56 34 5 -7 20 -32 34 -55 17 -28 33 -43 46 -43 18 0 19 -4 13 -52
-4 -29 -12 -62 -17 -72 -13 -24 -3 -183 18 -281 8 -38 14 -75 14 -82 0 -14
-85 -76 -147 -106 -203 -99 -391 -262 -457 -397 -46 -94 -70 -212 -61 -300 4
-35 22 -125 40 -200 34 -137 65 -324 65 -383 0 -18 -10 -52 -22 -77 -24 -52
-29 -140 -9 -164 16 -20 20 -18 -129 -50 -143 -31 -220 -57 -282 -97 -206
-133 -319 -477 -224 -685 15 -33 40 -80 57 -105 20 -32 29 -58 29 -88 0 -48
21 -96 50 -111 15 -8 18 -17 14 -38 -8 -38 19 -60 103 -85 58 -17 105 -21 313
-24 367 -7 476 11 1110 187 58 16 173 45 256 64 185 42 217 55 237 95 l15 30
-36 12 c-19 6 -68 12 -108 13 l-73 1 44 23 c65 32 79 59 71 131 -6 48 -2 72
19 134 32 96 34 242 6 357 -10 41 -16 94 -14 117 4 31 -2 57 -21 99 -18 38
-30 88 -37 153 -18 173 -28 225 -67 344 l-39 117 26 6 c88 19 154 44 301 113
91 43 189 86 219 96 l54 18 29 -34 c16 -19 43 -65 61 -104 19 -38 56 -95 83
-125 28 -30 56 -71 64 -90 40 -102 175 -291 297 -417 79 -81 206 -173 305
-218 80 -37 109 -61 193 -162 73 -89 76 -94 69 -130 -14 -67 4 -114 55 -145
20 -12 37 -23 39 -24 2 -1 -13 -53 -33 -116 -70 -212 -59 -350 37 -489 38 -57
52 -87 62 -141 15 -77 24 -87 103 -117 177 -68 665 -81 938 -25 137 28 206 62
269 133 56 64 108 158 102 184 -2 10 0 14 7 10 6 -4 8 2 4 16 -3 13 1 55 9 94
56 275 57 422 4 647 -17 74 -43 189 -56 255 -43 210 -91 327 -169 415 -33 37
-45 59 -45 83 -1 56 -20 120 -52 174 -35 57 -63 73 -132 73 -46 0 -96 35 -181
128 -63 69 -146 123 -248 162 -63 24 -94 43 -135 83 -49 48 -56 52 -105 53
-81 2 -92 9 -133 82 -20 37 -44 76 -54 87 -32 38 -74 120 -81 160 -4 22 -17
65 -28 96 -19 52 -19 59 -5 105 42 139 27 313 -42 468 -60 135 -107 277 -139
416 -14 63 -37 150 -51 193 -13 43 -24 80 -24 83 0 2 25 4 56 4 46 0 62 -5 86
-26 17 -14 53 -37 81 -50 l50 -26 -7 24 c-15 51 -18 141 -7 200 14 73 88 236
131 290 32 40 39 58 15 38 -10 -9 -15 -9 -15 -1 0 6 5 12 10 12 6 1 15 2 20 3
6 0 36 22 68 48 120 97 180 129 286 153 28 6 27 7 -43 60 -113 84 -210 127
-427 190 -90 26 -284 47 -725 79 l-177 13 -49 36 c-29 21 -67 39 -91 43 l-42
7 31 34 c17 20 35 45 40 57 7 15 26 25 61 34 85 20 154 89 146 147 l-3 23 -35
-18z m-480 -393 c0 -2 -10 -12 -22 -23 l-23 -19 19 23 c18 21 26 27 26 19z
m215 -356 c-3 -6 -18 -11 -33 -11 -29 0 -20 15 13 22 24 5 29 3 20 -11z m-40
-141 c-3 -5 -10 -10 -16 -10 -5 0 -9 5 -9 10 0 6 7 10 16 10 8 0 12 -4 9 -10z
m1155 -26 c0 -24 38 -17 43 9 3 21 4 21 12 2 5 -11 13 -23 19 -27 12 -8 -31
-58 -50 -58 -7 0 -14 -6 -17 -12 -2 -7 -8 -1 -12 14 -4 15 -14 29 -23 31 -12
3 -10 5 5 6 20 1 21 4 13 27 -13 32 -12 37 0 29 6 -3 10 -13 10 -21z m-1282
-20 c-4 -3 -12 5 -18 18 -12 22 -12 22 6 6 10 -10 15 -20 12 -24z m1262 4 c0
-6 -6 -5 -15 2 -8 7 -15 14 -15 16 0 2 7 1 15 -2 8 -4 15 -11 15 -16z m-1245
-38 c3 -5 2 -10 -4 -10 -5 0 -13 5 -16 10 -3 6 -2 10 4 10 5 0 13 -4 16 -10z
m-224 -84 c5 3 9 -3 9 -12 0 -14 -3 -15 -12 -6 -7 7 -17 8 -30 1 -12 -6 -18
-6 -18 0 0 14 34 32 38 20 2 -5 8 -7 13 -3z m-101 -20 c-24 -23 -40 -25 -40
-5 0 5 9 9 20 9 11 0 20 5 20 10 0 6 6 10 12 10 7 0 1 -11 -12 -24z m30 -21
c-7 -8 -17 -15 -22 -15 -6 0 -5 7 2 15 7 8 17 15 22 15 6 0 5 -7 -2 -15z m54
-10 c-7 -16 -24 -21 -24 -6 0 8 7 13 27 20 1 1 0 -6 -3 -14z m76 11 c0 -2 -7
-7 -16 -10 -8 -3 -12 -2 -9 4 6 10 25 14 25 6z m-275 -16 c-3 -5 -12 -10 -18
-10 -7 0 -6 4 3 10 19 12 23 12 15 0z m162 -34 c-13 -14 -16 -14 -27 -1 -10
12 -9 15 4 15 9 0 16 5 16 12 0 9 3 9 11 1 9 -9 8 -16 -4 -27z m-57 9 c-7 -9
-15 -13 -17 -11 -7 7 7 26 19 26 6 0 6 -6 -2 -15z m117 -22 c15 -31 14 -34
-14 -27 -13 4 -20 12 -18 22 2 10 4 20 4 25 2 16 17 6 28 -20z m63 7 c0 -5 -4
-10 -10 -10 -5 0 -10 5 -10 10 0 6 5 10 10 10 6 0 10 -4 10 -10z m-166 -24
c-3 -9 -10 -13 -16 -10 -5 3 -4 12 3 20 15 18 22 13 13 -10z m40 -18 c-7 -25
-41 -58 -57 -58 -6 0 -1 10 10 23 11 12 23 30 26 40 10 26 30 21 21 -5z m-130
-4 c3 -8 2 -12 -4 -9 -6 3 -10 10 -10 16 0 14 7 11 14 -7z m46 -25 c0 -5 -7
-9 -15 -9 -15 0 -20 12 -9 23 8 8 24 -1 24 -14z m-50 -40 c0 -5 -7 -9 -15 -9
-8 0 -15 -5 -15 -12 0 -6 -3 -9 -6 -6 -9 10 16 49 27 43 5 -4 9 -10 9 -16z
m170 -16 c30 -9 69 -26 87 -39 17 -13 36 -24 41 -24 15 0 62 -100 62 -133 0
-51 -14 -65 -62 -61 -38 3 -60 17 -70 44 -2 4 -22 11 -45 15 -38 6 -43 4 -43
-12 0 -12 -12 -24 -32 -32 l-33 -13 63 -19 c34 -11 62 -24 62 -29 0 -5 -7 -7
-15 -4 -8 4 -15 1 -15 -6 0 -6 4 -9 9 -6 5 3 11 -1 15 -9 3 -8 1 -15 -5 -15
-6 0 -8 -4 -4 -9 7 -12 -51 -41 -81 -41 -29 0 -74 20 -76 34 0 6 -2 16 -2 21
-1 6 -5 16 -10 24 -5 8 -3 16 5 22 11 6 8 9 -8 9 -12 0 -25 5 -28 10 -3 6 -1
10 4 10 6 0 11 7 11 15 0 22 -16 18 -27 -7 -10 -23 -10 -22 -26 9 -21 39 -22
102 -3 146 16 38 88 104 120 109 44 7 52 6 106 -9z m-1160 -100 c7 -21 14 -84
17 -140 5 -100 5 -103 -15 -103 -19 0 -20 -3 -12 -25 11 -28 1 -64 -23 -84
-13 -10 -19 -10 -36 6 -16 15 -34 57 -36 84 0 3 -8 13 -17 23 -20 20 -21 28
-18 106 4 98 49 170 106 170 18 0 26 -8 34 -37z m794 -27 c-3 -8 -12 -17 -20
-20 -18 -7 -18 -1 2 18 19 20 25 20 18 2z m-81 -36 c3 -11 2 -20 -3 -20 -4 0
-10 9 -13 20 -3 11 -2 20 3 20 4 0 10 -9 13 -20z m-468 -47 c-5 -10 -7 -22 -6
-26 1 -4 -6 -16 -15 -25 -13 -13 -16 -13 -12 -2 3 9 -4 21 -16 28 -21 13 -21
13 0 7 15 -4 24 2 34 20 15 28 27 26 15 -2z m345 18 c0 -5 -7 -14 -15 -21 -16
-14 -18 -10 -9 14 6 17 24 22 24 7z m40 -1 c0 -5 -2 -10 -4 -10 -3 0 -8 5 -11
10 -3 6 -1 10 4 10 6 0 11 -4 11 -10z m60 -3 c0 -8 -9 -22 -19 -31 -21 -19
-22 -39 -3 -58 17 -17 15 -36 -7 -47 -16 -9 -18 -7 -15 17 1 14 -1 31 -6 37
-5 6 -7 20 -5 30 2 11 4 23 4 28 1 4 8 7 16 7 8 0 15 7 15 15 0 8 5 15 10 15
6 0 10 -6 10 -13z m60 6 c0 -5 -4 -15 -10 -23 -11 -18 -25 -7 -17 15 6 15 27
21 27 8z m-238 -45 c-7 -7 -12 -8 -12 -2 0 6 3 14 7 17 3 4 9 5 12 2 2 -3 -1
-11 -7 -17z m273 2 c3 -5 -3 -10 -15 -10 -12 0 -18 5 -15 10 3 6 10 10 15 10
5 0 12 -4 15 -10z m-495 -22 c0 6 5 12 11 12 8 0 8 -4 0 -14 -11 -14 -51 -11
-51 3 0 18 14 19 26 3 8 -10 13 -12 14 -4z m120 14 c0 -4 -9 -15 -20 -25 -22
-19 -25 -15 -10 14 11 19 30 26 30 11z m206 -10 c-3 -3 -1 -11 5 -18 11 -13 5
-34 -11 -34 -4 0 -6 9 -3 20 3 11 0 20 -6 20 -6 0 -11 -7 -11 -15 0 -8 -4 -15
-10 -15 -16 0 -11 32 7 46 17 11 41 9 29 -4z m78 -30 c-6 -14 -8 -13 -14 8 -3
14 -2 28 4 32 14 9 20 -17 10 -40z m-244 27 c0 -6 9 -8 20 -4 18 6 19 3 14
-24 -4 -20 -2 -31 5 -31 6 0 10 3 9 8 -2 4 7 18 20 32 28 30 31 5 4 -31 -10
-13 -22 -33 -26 -44 -8 -19 -9 -18 -18 8 -5 15 -17 27 -25 27 -13 0 -13 3 -3
15 10 13 10 19 -5 35 -10 11 -13 20 -7 20 7 0 12 -5 12 -11z m369 -22 c-10
-18 -12 -19 -21 -4 -11 21 -2 38 17 31 12 -5 12 -10 4 -27z m-469 8 c0 -7 -8
-19 -17 -24 -10 -6 -14 -11 -9 -11 5 0 3 -7 -5 -16 -17 -20 -19 -55 -5 -73 8
-12 8 -13 -2 -7 -15 9 -60 -34 -54 -52 2 -7 -1 -12 -7 -12 -6 0 -11 -10 -11
-21 0 -17 3 -19 14 -10 8 7 22 27 31 46 19 41 40 47 33 10 -7 -34 7 -31 22 5
7 16 17 27 22 24 11 -7 7 -46 -7 -56 -6 -4 -2 -8 8 -8 10 0 21 -10 26 -22 l8
-23 8 25 c4 14 16 34 26 46 19 20 19 22 2 35 -15 12 -16 12 -11 -3 4 -10 1
-19 -8 -22 -8 -3 -14 -12 -14 -21 0 -8 -4 -15 -10 -15 -15 0 -12 21 7 42 15
17 15 20 3 28 -13 8 -12 10 2 10 9 0 19 6 21 13 3 7 6 4 6 -7 1 -14 6 -17 22
-13 16 4 19 2 14 -11 -11 -28 -11 -34 3 -39 6 -3 12 3 12 11 0 18 18 52 38 74
7 7 10 17 7 22 -3 4 2 13 10 20 8 7 13 16 10 20 -3 5 -1 12 5 15 13 8 8 -27
-9 -69 -6 -16 -10 -35 -7 -43 3 -8 -2 -13 -14 -13 -22 0 -23 -1 -14 -24 8 -20
24 -21 24 -1 0 8 7 15 15 15 11 0 12 -5 5 -26 -13 -33 -13 -34 6 -34 11 0 15
6 11 20 -6 23 5 26 22 6 10 -12 16 -10 38 10 16 15 23 29 19 40 -4 12 -2 15 9
10 10 -4 15 1 15 14 0 11 5 20 10 20 13 0 13 -27 0 -35 -6 -4 -10 -14 -9 -23
3 -31 -1 -43 -11 -37 -5 3 -10 1 -10 -4 0 -23 30 -10 45 19 9 17 17 30 19 30
7 0 -7 -55 -17 -68 -7 -9 -2 -19 17 -37 24 -22 29 -23 42 -11 8 8 14 19 14 25
0 17 -22 24 -32 10 -7 -10 -8 -8 -2 6 4 11 8 30 8 43 1 12 7 22 14 22 15 0 16
-26 2 -35 -15 -9 9 -37 26 -31 23 9 23 -6 0 -43 -36 -56 -57 -101 -49 -101 5
0 19 17 33 38 33 50 44 56 51 29 3 -15 12 -21 25 -19 14 2 16 1 6 -6 -8 -5
-12 -18 -10 -28 4 -20 -19 -54 -37 -54 -6 0 -16 -9 -23 -20 -10 -17 -10 -20 3
-20 9 0 18 7 22 16 3 8 11 13 19 10 7 -3 15 0 18 7 2 7 5 7 5 2 1 -6 -13 -26
-30 -44 -21 -24 -27 -36 -19 -41 16 -10 90 62 76 72 -6 5 -2 8 10 8 11 0 37
17 57 37 45 44 49 37 6 -11 -17 -20 -28 -40 -24 -46 3 -5 -1 -10 -11 -10 -20
0 -56 -39 -48 -51 9 -15 21 -10 27 11 4 14 10 18 23 13 11 -4 13 -8 6 -11 -7
-2 -10 -7 -7 -12 5 -9 -41 -50 -56 -50 -5 0 -6 7 -3 15 8 21 -3 19 -29 -6
l-22 -21 23 7 c19 5 23 3 20 -12 -6 -38 -79 -58 -94 -25 -4 9 -8 20 -8 24 -3
18 -17 18 -38 -2 l-23 -21 26 6 c29 7 48 -8 27 -22 -7 -4 -17 -8 -22 -8 -5 0
-12 -7 -14 -15 -4 -11 0 -11 21 3 15 10 28 15 28 12 1 -3 2 -9 3 -14 2 -17 17
-26 24 -14 4 6 21 19 38 29 17 11 43 27 58 38 28 19 49 15 28 -6 -10 -10 -8
-16 10 -30 l23 -18 -27 0 c-14 0 -28 -6 -31 -12 -2 -8 -8 -9 -13 -4 -5 5 -4
11 4 13 13 5 17 33 4 33 -4 0 -24 -13 -43 -30 -24 -19 -46 -29 -65 -28 -16 1
-41 -1 -56 -5 -22 -6 -28 -4 -28 8 0 17 -16 20 -25 5 -3 -5 -21 -10 -38 -10
l-32 1 30 14 c26 12 27 13 8 14 -12 1 -29 -6 -37 -15 -9 -9 -30 -15 -49 -14
-57 3 -74 -2 -37 -11 32 -7 303 -4 445 6 33 2 101 6 150 8 l90 5 -75 -13 c-41
-8 -105 -15 -142 -17 -38 -2 -68 -7 -68 -12 0 -4 -21 -5 -47 -2 -37 5 -44 4
-33 -4 12 -9 8 -10 -17 -6 -19 3 -33 1 -33 -4 0 -6 5 -10 12 -10 6 0 9 -2 6
-5 -2 -3 -30 2 -62 10 -72 19 -133 19 -152 0 -13 -12 -12 -15 7 -25 11 -7 18
-14 15 -17 -3 -3 -11 -1 -18 4 -7 6 -26 13 -43 17 -16 4 -33 13 -37 19 -4 6
-10 8 -14 4 -4 -4 1 -14 12 -21 10 -8 16 -18 12 -22 -5 -4 -17 1 -27 10 -14
13 -28 16 -50 11 -27 -6 -31 -4 -31 14 0 21 -17 37 -28 26 -3 -3 0 -10 8 -15
8 -5 11 -12 7 -16 -8 -9 -39 15 -32 26 3 4 -2 13 -10 20 -11 9 -15 9 -15 1 0
-8 -5 -9 -19 -1 -11 5 -26 7 -34 5 -7 -3 -20 1 -27 10 -10 12 -10 15 3 15 8 0
21 7 28 17 13 15 11 16 -13 10 -36 -9 -28 15 10 33 16 8 22 14 14 17 -7 3 -19
-1 -28 -7 -8 -7 -17 -10 -21 -6 -4 3 3 13 15 22 12 8 22 20 22 26 0 6 -8 4
-18 -5 -25 -23 -35 -21 -27 6 6 21 6 21 -14 -3 -20 -24 -20 -24 -14 -2 3 12 9
25 14 28 5 3 9 10 9 15 0 6 -4 7 -10 4 -5 -3 -10 -1 -10 4 0 6 7 11 15 11 16
0 20 27 6 49 -5 8 -16 11 -25 8 -14 -6 -15 -3 -6 13 12 22 1 27 -18 8 -18 -18
-14 3 5 24 14 16 14 18 1 18 -9 0 -23 -11 -32 -25 -9 -14 -21 -25 -26 -25 -5
0 4 15 21 32 16 18 29 35 30 38 5 49 4 80 -3 80 -11 0 -10 37 1 44 5 3 11 -4
15 -17 5 -18 8 -19 15 -7 6 9 6 19 0 26 -7 9 -7 25 0 51 9 31 8 40 -4 49 -17
13 -20 34 -5 34 6 0 10 -5 10 -10 0 -6 11 -23 25 -37 l24 -27 21 48 c24 57 24
56 5 56 -8 0 -15 7 -15 15 0 8 4 15 9 15 5 0 11 -7 15 -15 3 -8 10 -15 15 -15
6 0 8 7 5 15 -4 8 -1 15 5 15 6 0 11 7 11 15 0 8 5 15 10 15 6 0 10 -7 10 -15z
m404 7 c7 -12 -7 -29 -26 -29 -13 0 -15 4 -7 19 10 19 24 23 33 10z m-389 -55
c-3 -27 -26 -67 -37 -67 -12 0 -10 7 12 50 23 46 28 49 25 17z m430 14 c3 -5
1 -12 -5 -16 -5 -3 -10 1 -10 9 0 18 6 21 15 7z m-375 -14 c0 -19 -26 -52 -32
-41 -8 13 9 54 22 54 5 0 10 -6 10 -13z m184 -3 c17 -17 22 -59 6 -49 -6 4 -7
12 -3 18 3 7 -3 4 -15 -7 -12 -10 -19 -23 -16 -27 3 -5 0 -9 -6 -9 -12 0 -5
36 12 57 5 7 7 17 3 23 -9 15 1 12 19 -6z m116 -8 c0 -8 -8 -16 -18 -18 -16
-5 -17 -2 -8 17 11 24 26 24 26 1z m505 15 c7 -12 -12 -24 -25 -16 -11 7 -4
25 10 25 5 0 11 -4 15 -9z m-394 -24 c-10 -9 -11 -8 -5 6 3 10 9 15 12 12 3
-3 0 -11 -7 -18z m-377 -1 c-3 -8 -12 -17 -20 -20 -18 -7 -18 -1 2 18 19 20
25 20 18 2z m-190 -8 c-3 -4 -9 -8 -15 -8 -5 0 -9 4 -9 8 0 5 7 9 15 9 8 0 12
-4 9 -9z m476 -43 c0 -8 -4 -15 -10 -15 -5 0 -7 7 -4 15 4 8 8 15 10 15 2 0 4
-7 4 -15z m-120 -10 c0 -8 -4 -15 -10 -15 -5 0 -10 7 -10 15 0 8 5 15 10 15 6
0 10 -7 10 -15z m240 0 c0 -8 -4 -15 -10 -15 -5 0 -10 7 -10 15 0 8 5 15 10
15 6 0 10 -7 10 -15z m-674 -25 c0 -11 -4 -20 -8 -20 -10 0 -11 24 -1 33 9 9
9 10 9 -13z m424 -20 c0 -5 -4 -10 -10 -10 -5 0 -10 5 -10 10 0 6 5 10 10 10
6 0 10 -4 10 -10z m720 -20 c0 -5 -4 -10 -10 -10 -5 0 -10 5 -10 10 0 6 5 10
10 10 6 0 10 -4 10 -10z m-420 -70 c0 -5 -5 -10 -11 -10 -5 0 -7 5 -4 10 3 6
8 10 11 10 2 0 4 -4 4 -10z m37 -43 c-6 -15 -18 -27 -25 -27 -7 0 -10 -4 -7
-10 3 -5 -2 -10 -11 -10 -16 0 -15 2 2 22 55 63 61 67 41 25z m-814 -52 c-3
-9 -8 -14 -10 -11 -3 3 -2 9 2 15 9 16 15 13 8 -4z m892 -5 c3 -5 1 -10 -4
-10 -6 0 -11 5 -11 10 0 6 2 10 4 10 3 0 8 -4 11 -10z m-130 -10 c3 -5 1 -10
-4 -10 -6 0 -11 5 -11 10 0 6 2 10 4 10 3 0 8 -4 11 -10z m105 -100 c0 -5 -5
-10 -11 -10 -5 0 -7 5 -4 10 3 6 8 10 11 10 2 0 4 -4 4 -10z m-42 -49 c-14
-23 -39 -24 -46 -3 -2 7 5 12 17 12 11 0 23 5 26 11 4 6 9 8 12 6 2 -3 -2 -15
-9 -26z m47 -13 c-25 -14 -51 -40 -52 -53 -2 -16 -23 -18 -23 -1 0 15 66 66
85 66 5 0 1 -6 -10 -12z m35 -28 c0 -5 -3 -10 -8 -10 -4 0 -25 -16 -47 -35
-22 -19 -46 -35 -54 -35 -8 0 0 11 18 25 19 13 42 33 53 45 20 21 38 26 38 10z
m60 -55 c-7 -9 -15 -13 -17 -11 -7 7 7 26 19 26 6 0 6 -6 -2 -15z m-71 -16
c-22 -13 -31 -11 -17 5 7 8 17 12 22 9 4 -3 2 -9 -5 -14z m-814 -9 c3 -5 1
-10 -4 -10 -6 0 -11 5 -11 10 0 6 2 10 4 10 3 0 8 -4 11 -10z m117 -61 c31
-16 38 -23 29 -32 -10 -9 -16 -8 -26 7 -8 10 -19 15 -26 10 -7 -4 -10 -3 -5 4
3 6 -2 15 -11 21 -33 19 -3 11 39 -10z m678 11 c0 -5 -7 -7 -15 -4 -8 4 -15 8
-15 10 0 2 7 4 15 4 8 0 15 -4 15 -10z m-315 -25 c17 -7 23 -14 15 -14 -8 0
-28 6 -45 14 -16 7 -23 14 -15 14 8 0 29 -6 45 -14z m170 5 c3 -5 2 -10 -4
-10 -5 0 -13 5 -16 10 -3 6 -2 10 4 10 5 0 13 -4 16 -10z m-395 -36 c0 -2 -7
-4 -15 -4 -8 0 -15 4 -15 10 0 5 7 7 15 4 8 -4 15 -8 15 -10z m235 -4 c13 -5
14 -9 5 -9 -8 0 -24 4 -35 9 -13 5 -14 9 -5 9 8 0 24 -4 35 -9z m-673 -382
c15 15 32 16 23 2 -3 -5 1 -10 11 -10 13 0 14 -3 5 -14 -9 -10 -9 -16 -1 -21
8 -5 8 -11 1 -19 -6 -7 -8 -16 -4 -19 17 -18 -16 -4 -36 14 -18 17 -20 24 -10
30 10 6 8 12 -7 26 -11 10 -14 14 -7 9 9 -6 18 -5 25 2z m110 -23 c3 -13 3
-27 0 -30 -9 -9 -42 -5 -42 5 0 6 -8 10 -17 11 -14 0 -15 2 -3 6 8 3 19 12 23
19 13 22 34 16 39 -11z m-170 1 c10 -7 15 -15 13 -18 -3 -3 8 -18 24 -35 35
-37 28 -58 -17 -48 -28 6 -30 4 -25 -15 7 -28 30 -37 46 -18 7 8 26 20 42 26
25 11 27 10 13 -1 -20 -16 -14 -57 9 -57 8 0 11 -5 8 -10 -4 -6 -11 -7 -17 -4
-7 4 -8 2 -4 -4 4 -7 -3 -16 -18 -23 -19 -9 -23 -17 -20 -37 3 -14 8 -30 11
-36 4 -5 -8 0 -25 12 -37 27 -53 48 -30 39 12 -4 10 7 -10 46 -22 43 -29 50
-40 40 -18 -17 -41 -16 -48 2 -4 8 -17 15 -30 15 -13 0 -24 4 -24 9 0 5 8 7
19 4 10 -3 22 0 25 6 11 18 26 13 35 -11 l8 -22 13 23 c11 21 10 26 -11 42
-20 16 -22 20 -9 29 8 5 20 10 27 10 19 0 26 20 13 35 -15 18 -1 19 22 1z
m248 -6 c0 -5 -5 -10 -11 -10 -5 0 -7 -5 -3 -12 4 -7 3 -8 -4 -4 -17 10 -15
36 3 36 8 0 15 -4 15 -10z m-310 -10 c0 -5 -5 -10 -11 -10 -5 0 -7 5 -4 10 3
6 8 10 11 10 2 0 4 -4 4 -10z m-30 -39 c13 -25 13 -31 0 -31 -5 0 -10 5 -10
11 0 7 -8 18 -17 25 -17 12 -17 13 -1 14 10 0 22 -9 28 -19z m284 -17 c18 -18
21 -34 6 -34 -5 0 -10 7 -10 15 0 12 -4 13 -19 5 -11 -5 -27 -10 -35 -10 -14
0 -14 3 -4 20 15 24 41 26 62 4z m103 -64 c19 -29 -2 -34 -21 -5 -12 19 -13
25 -4 25 7 0 19 -9 25 -20z m-457 -20 c0 -13 5 -17 14 -14 8 3 12 12 9 20 -9
23 23 16 35 -8 14 -30 26 -72 21 -76 -2 -2 4 -8 14 -14 13 -7 18 -19 15 -45
-2 -25 3 -39 17 -49 16 -12 16 -14 3 -14 -21 0 -50 29 -42 42 3 5 -3 4 -14 -3
-18 -11 -24 -10 -40 5 -15 13 -22 14 -28 5 -4 -7 -2 -15 4 -17 7 -2 12 -10 12
-18 0 -26 25 -94 34 -94 5 0 -3 -11 -19 -25 -21 -20 -30 -23 -41 -14 -8 6 -11
16 -8 21 4 6 10 5 15 -3 7 -11 10 -12 21 -1 11 11 10 15 -3 25 -16 12 -19 18
-19 37 0 6 -4 10 -10 10 -5 0 -10 -11 -10 -24 0 -36 -15 -40 -35 -10 -9 14
-19 23 -22 20 -4 -3 2 -15 12 -26 20 -22 14 -50 -11 -50 -10 0 -14 5 -10 15 3
8 2 15 -3 15 -8 0 -9 4 -14 50 -2 14 -9 36 -16 48 -13 25 -9 38 8 28 6 -4 8
-13 5 -20 -3 -7 2 -16 11 -20 9 -3 13 -10 10 -16 -12 -19 13 -12 64 17 2 2 -1
9 -8 17 -6 8 -10 18 -9 24 2 5 -1 9 -7 9 -5 -1 -8 -14 -6 -29 3 -34 -5 -35
-31 -6 -18 21 -18 22 8 49 23 24 25 31 16 58 -11 31 1 55 12 25 5 -14 8 -14
28 0 28 20 44 21 28 1 -13 -16 -3 -20 25 -9 15 6 15 8 0 24 -9 10 -24 16 -36
13 -16 -4 -19 0 -19 26 0 19 4 30 10 26 6 -3 10 -15 10 -25z m328 -21 c7 -12
11 -23 8 -27 -9 -8 -46 29 -40 39 8 14 18 10 32 -12z m72 4 c14 -13 16 -19 7
-25 -19 -12 -30 -9 -24 6 3 7 0 19 -6 25 -18 18 1 13 23 -6z m-271 -12 c13
-11 20 -25 16 -31 -4 -6 0 -19 8 -28 16 -18 17 -20 17 -51 0 -11 7 -27 17 -36
14 -14 14 -18 2 -26 -23 -14 -32 -10 -26 12 6 23 -11 69 -25 69 -5 0 -7 4 -3
9 3 6 -2 14 -11 19 -11 6 -18 23 -19 46 0 20 0 36 1 36 0 0 11 -9 23 -19z
m1861 -5 c0 -11 -19 -15 -25 -6 -3 5 1 10 9 10 9 0 16 -2 16 -4z m-2070 -26
c0 -5 -4 -10 -10 -10 -5 0 -10 5 -10 10 0 6 5 10 10 10 6 0 10 -4 10 -10z
m405 0 c3 -5 -1 -10 -10 -10 -9 0 -13 5 -10 10 3 6 8 10 10 10 2 0 7 -4 10
-10z m1595 -4 c0 -3 -4 -8 -10 -11 -5 -3 -10 -1 -10 4 0 6 5 11 10 11 6 0 10
-2 10 -4z m-2045 -16 c3 -5 -1 -10 -9 -10 -9 0 -16 5 -16 10 0 6 4 10 9 10 6
0 13 -4 16 -10z m425 -22 c0 -13 -20 -9 -36 6 -21 21 -17 26 11 13 14 -7 25
-15 25 -19z m1660 12 c0 -5 -4 -10 -9 -10 -6 0 -13 5 -16 10 -3 6 1 10 9 10 9
0 16 -4 16 -10z m-96 -16 c3 -8 2 -12 -4 -9 -5 3 -14 -4 -20 -16 -8 -14 -15
-18 -22 -11 -6 6 -4 17 8 31 22 25 30 26 38 5z m-1934 -2 c0 -13 -12 -22 -22
-16 -10 6 -1 24 13 24 5 0 9 -4 9 -8z m367 -18 c-3 -3 -12 -4 -19 -1 -8 3 -5
6 6 6 11 1 17 -2 13 -5z m2047 -29 c-4 -8 -11 -12 -16 -9 -6 4 -5 10 3 15 19
12 19 11 13 -6z m-2544 -15 c0 -5 -4 -10 -10 -10 -5 0 -10 5 -10 10 0 6 5 10
10 10 6 0 10 -4 10 -10z m50 -6 c0 -17 -22 -14 -28 4 -2 7 3 12 12 12 9 0 16
-7 16 -16z m470 -8 c0 -3 -4 -8 -10 -11 -5 -3 -10 -1 -10 4 0 6 5 11 10 11 6
0 10 -2 10 -4z m2080 -6 c0 -5 -4 -10 -9 -10 -6 0 -13 5 -16 10 -3 6 1 10 9
10 9 0 16 -4 16 -10z m-2148 -32 c-15 -15 -24 -6 -16 16 5 12 10 14 17 7 8 -8
8 -14 -1 -23z m-381 -31 c-6 -6 -2 -20 11 -37 11 -16 18 -33 14 -38 -3 -6 -2
-12 3 -14 4 -1 12 -14 16 -28 8 -25 8 -25 -14 -6 -11 11 -21 24 -21 29 0 6 -7
19 -17 29 -9 10 -11 18 -5 18 6 0 9 7 5 16 -4 11 -14 14 -32 11 -23 -5 -24 -4
-8 8 9 7 17 23 17 35 0 23 0 23 20 5 13 -12 17 -22 11 -28z m2381 20 c-7 -8
-9 -17 -5 -20 3 -4 -1 -7 -10 -7 -9 0 -17 2 -17 5 0 9 34 44 38 40 3 -3 0 -11
-6 -18z m78 -6 c26 -15 28 -20 16 -30 -8 -7 -16 -24 -18 -37 -2 -14 -7 -23
-13 -22 -15 4 -6 41 13 56 15 11 15 14 2 22 -8 5 -21 10 -27 10 -7 0 -13 5
-13 10 0 14 5 13 40 -9z m80 12 c0 -3 -7 -15 -17 -25 -9 -11 -11 -18 -5 -18 7
0 12 -7 12 -15 0 -12 -4 -13 -19 -4 -17 11 -17 14 -2 40 15 27 31 38 31 22z
m-2260 -13 c0 -5 -7 -10 -15 -10 -8 0 -15 5 -15 10 0 6 7 10 15 10 8 0 15 -4
15 -10z m56 1 c-4 -5 0 -11 6 -14 10 -4 10 -7 0 -18 -11 -12 -14 -12 -21 0
-10 16 -4 41 11 41 5 0 7 -4 4 -9z m-116 -16 c0 -7 7 -18 16 -23 9 -5 14 -18
12 -32 -3 -20 -6 -18 -25 20 -26 48 -27 50 -13 50 6 0 10 -7 10 -15z m1990 1
c0 -3 -4 -8 -10 -11 -5 -3 -10 -1 -10 4 0 6 5 11 10 11 6 0 10 -2 10 -4z m375
-15 c0 -23 -22 -24 -28 -1 -4 16 -1 20 11 18 9 -2 17 -10 17 -17z m-2675 -1
c0 -5 -5 -10 -11 -10 -5 0 -7 5 -4 10 3 6 8 10 11 10 2 0 4 -4 4 -10z m2387
-14 c-3 -7 -1 -18 4 -23 15 -15 -15 -47 -37 -39 -15 6 -16 9 -4 16 8 5 11 12
7 16 -4 4 0 16 10 26 19 21 27 23 20 4z m-170 -26 c-14 -11 -28 -20 -31 -20
-3 0 -1 9 6 20 7 11 21 20 32 20 16 0 15 -3 -7 -20z m373 10 c0 -5 -2 -10 -4
-10 -3 0 -8 5 -11 10 -3 6 -1 10 4 10 6 0 11 -4 11 -10z m140 -12 c0 -6 -7 -7
-16 -4 -9 3 -18 6 -20 6 -3 0 -3 4 1 10 7 11 35 2 35 -12z m-2662 -29 c4 -24
4 -24 -16 -4 -20 21 -19 39 1 32 7 -2 14 -14 15 -28z m2192 0 c-6 -11 -15 -17
-20 -14 -6 4 -5 14 2 25 16 24 31 15 18 -11z m170 -4 c0 -20 -5 -25 -25 -25
-30 0 -31 4 -7 29 24 26 32 25 32 -4z m229 14 c13 -9 12 -10 -6 -6 -13 3 -23
1 -23 -5 0 -5 -8 -7 -19 -3 -11 3 -21 0 -24 -9 -9 -22 3 -27 27 -11 11 8 23
15 27 15 10 0 18 -39 9 -45 -14 -9 -16 -61 -3 -74 15 -14 14 -16 18 29 5 45 9
62 18 78 14 22 26 13 22 -18 -4 -27 8 -42 17 -22 2 4 11 0 21 -10 13 -14 14
-18 3 -18 -17 0 -25 -28 -16 -54 6 -17 7 -17 23 -2 9 10 17 22 17 27 0 6 5 7
10 4 6 -4 8 -15 5 -25 -4 -13 1 -20 16 -25 16 -5 18 -9 9 -15 -8 -5 -19 -2
-27 6 -11 11 -18 11 -33 1 -11 -6 -21 -16 -21 -22 -6 -45 -5 -61 2 -65 13 -8
-1 -50 -17 -50 -7 0 -11 -6 -8 -14 4 -9 -5 -15 -25 -18 -19 -3 -30 0 -29 6 2
6 -2 12 -7 14 -6 1 -10 -1 -10 -5 0 -5 -4 -14 -8 -20 -5 -9 -3 -13 7 -13 17 0
21 -12 9 -24 -5 -4 -8 -12 -8 -17 0 -10 -8 -11 -32 -2 -30 11 -33 26 -7 50 13
12 24 31 24 43 0 11 5 20 12 20 6 0 9 2 6 5 -11 11 -57 -7 -52 -20 7 -18 -23
-29 -93 -31 -52 -2 -63 1 -68 16 -4 12 -12 16 -25 13 -12 -3 -22 1 -26 11 -9
22 -22 20 -26 -5 -3 -18 -5 -19 -22 -6 -15 11 -17 17 -7 36 7 12 14 35 16 51
2 16 6 39 10 50 5 14 2 20 -9 20 -9 0 -16 -9 -16 -20 0 -11 -6 -20 -13 -20
-19 0 -28 11 -20 24 4 6 9 20 10 31 7 46 26 85 40 85 12 0 13 -3 4 -14 -9 -11
-9 -20 -2 -35 9 -16 8 -22 -6 -30 -10 -6 -13 -11 -7 -11 15 0 51 44 46 58 -2
7 3 12 12 12 19 0 21 16 4 23 -10 4 -10 6 0 6 7 1 17 -10 22 -23 5 -13 20 -26
35 -30 14 -4 23 -11 20 -16 -3 -6 -1 -10 5 -10 7 0 9 8 5 20 -3 11 -2 20 3 20
6 0 13 18 17 39 6 39 8 40 41 35 22 -2 36 1 39 9 7 15 63 20 84 6z m-349 -33
c0 -18 -6 -39 -14 -45 -17 -14 -29 0 -20 22 4 11 -1 14 -23 11 -15 -2 -22 -1
-14 2 7 4 22 15 32 25 28 28 39 23 39 -15z m-2010 20 c0 -3 -4 -8 -10 -11 -5
-3 -10 -1 -10 4 0 6 5 11 10 11 6 0 10 -2 10 -4z m-207 -69 c-7 -11 -23 12
-23 33 1 12 4 11 15 -4 8 -10 12 -23 8 -29z m167 27 c0 -8 -4 -12 -10 -9 -5 3
-10 10 -10 16 0 5 5 9 10 9 6 0 10 -7 10 -16z m2207 0 c4 -15 -14 -37 -25 -30
-13 8 -3 48 11 43 6 -2 12 -7 14 -13z m-222 -14 c6 -10 -15 -50 -27 -50 -10 0
-11 44 -1 53 9 10 21 9 28 -3z m-2181 -46 c5 -14 4 -15 -9 -4 -17 14 -19 20
-6 20 5 0 12 -7 15 -16z m136 -34 c0 -5 -4 -10 -10 -10 -5 0 -10 5 -10 10 0 6
5 10 10 10 6 0 10 -4 10 -10z m2645 -50 c3 -5 1 -10 -4 -10 -6 0 -11 5 -11 10
0 6 2 10 4 10 3 0 8 -4 11 -10z m-56 -9 c9 -6 11 -15 6 -27 -11 -27 -12 -58 0
-66 5 -4 6 -10 3 -14 -4 -3 -14 1 -23 10 -9 9 -13 16 -9 16 3 0 1 7 -6 15 -8
10 -9 15 -2 15 6 0 9 7 6 15 -4 10 0 15 12 15 17 0 16 1 -2 15 -20 15 -8 21
15 6z m61 -61 c0 -5 -2 -10 -4 -10 -3 0 -8 5 -11 10 -3 6 -1 10 4 10 6 0 11
-4 11 -10z m-560 -10 c0 -5 -5 -10 -11 -10 -5 0 -7 5 -4 10 3 6 8 10 11 10 2
0 4 -4 4 -10z m555 -27 c0 -6 3 -15 8 -19 13 -13 7 -26 -10 -22 -12 2 -18 13
-18 31 -1 15 4 26 10 24 5 -2 10 -9 10 -14z m-555 -13 c0 -5 -2 -10 -4 -10 -3
0 -8 5 -11 10 -3 6 -1 10 4 10 6 0 11 -4 11 -10z m615 -10 c3 -5 1 -10 -4 -10
-6 0 -11 5 -11 10 0 6 2 10 4 10 3 0 8 -4 11 -10z m-465 -50 c-23 -18 -23 -20
-5 -20 19 -1 18 -2 -3 -12 -12 -6 -25 -8 -29 -5 -12 13 18 53 40 54 21 2 21 1
-3 -17z m126 -12 c-1 -18 -6 -39 -10 -47 -7 -11 -4 -13 13 -8 22 6 23 5 5 -12
-15 -14 -23 -15 -36 -7 -20 12 -24 26 -8 26 6 0 10 5 10 10 0 6 -9 10 -21 10
-11 0 -17 5 -14 10 3 6 -1 10 -9 10 -9 0 -16 -7 -16 -15 0 -8 -9 -15 -21 -15
-18 0 -16 3 12 29 18 17 44 32 58 34 14 2 29 5 32 6 3 0 5 -14 5 -31z m148 23
c10 -15 -22 -20 -34 -5 -10 11 -9 14 8 14 12 0 23 -4 26 -9z m71 -1 c7 -12
-12 -12 -40 0 -18 8 -17 9 7 9 15 1 30 -3 33 -9z m35 -20 c0 -5 -4 -10 -10
-10 -5 0 -10 5 -10 10 0 6 5 10 10 10 6 0 10 -4 10 -10z m-45 -10 c3 -5 2 -10
-4 -10 -5 0 -13 5 -16 10 -3 6 -2 10 4 10 5 0 13 -4 16 -10z m-70 -10 c3 -5
-1 -10 -9 -10 -9 0 -16 5 -16 10 0 6 4 10 9 10 6 0 13 -4 16 -10z m-15 -20 c8
-5 12 -12 8 -15 -10 -10 -49 5 -43 16 8 11 16 11 35 -1z m-252 -28 c6 -18 -15
-14 -22 4 -4 10 -1 14 6 12 6 -2 14 -10 16 -16z m266 -11 c3 -4 2 -11 -2 -15
-4 -4 -7 -13 -7 -19 0 -25 -28 -11 -31 16 -2 21 2 27 16 27 10 0 21 -4 24 -9z
m-206 -20 c11 -6 10 -10 -4 -15 -10 -4 -24 0 -33 9 -14 13 -13 15 4 15 11 0
26 -4 33 -9z m120 -29 c2 -7 -2 -10 -12 -6 -9 3 -16 11 -16 16 0 13 23 5 28
-10z m-13 -72 c3 -5 2 -10 -4 -10 -5 0 -13 5 -16 10 -3 6 -2 10 4 10 5 0 13
-4 16 -10z m-2530 -180 c3 -5 1 -10 -4 -10 -6 0 -11 5 -11 10 0 6 2 10 4 10 3
0 8 -4 11 -10z m-395 -485 c-17 -21 -5 -31 17 -14 11 9 14 10 9 2 -4 -7 -3
-13 3 -13 5 0 11 5 13 12 5 15 71 18 80 4 5 -8 8 -7 8 2 0 13 37 16 64 6 14
-5 14 -8 0 -21 -8 -9 -13 -17 -11 -19 7 -7 36 7 40 19 2 7 3 4 2 -5 -2 -10 1
-18 6 -18 17 0 9 -23 -18 -48 -15 -14 -29 -20 -31 -14 -2 6 -12 2 -23 -9 -12
-12 -18 -24 -14 -27 4 -4 12 1 20 11 12 16 13 16 18 -3 3 -11 1 -18 -3 -15
-12 7 -50 -26 -50 -43 0 -8 -7 -11 -19 -7 -11 3 -24 -1 -32 -12 -12 -15 -12
-16 4 -10 12 4 17 1 17 -9 0 -10 -6 -14 -14 -11 -8 3 -16 1 -18 -4 -2 -6 -30
-11 -62 -12 -39 -2 -61 -7 -64 -16 -4 -11 -6 -11 -13 0 -7 11 -12 12 -29 1
-23 -14 -24 -13 -10 22 10 27 -5 37 -26 16 -6 -6 -10 -3 -11 10 -1 11 2 18 7
15 9 -6 23 12 26 33 1 6 -1 12 -6 12 -4 0 -7 11 -7 25 0 13 3 22 8 19 12 -7
49 18 49 33 0 7 4 13 8 13 18 0 48 36 44 53 -4 18 17 52 26 42 3 -2 -1 -11 -8
-20z m260 -79 c0 -2 -7 -9 -15 -16 -13 -11 -14 -10 -9 4 5 14 24 23 24 12z
m3328 -139 c13 3 18 -3 19 -28 2 -30 16 -48 36 -49 5 0 6 4 3 9 -3 4 6 7 19 5
14 -1 25 1 25 5 0 17 48 -2 53 -20 6 -22 -8 -26 -17 -4 -3 8 -11 15 -17 15 -8
0 -8 -4 1 -15 11 -13 10 -14 -4 -9 -19 7 -19 6 -5 -33 9 -28 12 -30 34 -19 13
6 21 15 17 21 -3 5 2 4 11 -4 21 -17 33 -9 15 10 -8 8 -15 37 -16 64 -1 45 0
47 8 20 6 -16 8 -35 6 -42 -3 -6 2 -14 10 -17 8 -3 13 -9 12 -13 -1 -4 1 -25
5 -45 7 -34 10 -37 27 -25 24 14 26 27 5 27 -9 0 -12 6 -9 15 4 8 10 15 16 15
5 0 6 -5 3 -10 -4 -7 3 -9 19 -6 20 4 26 1 26 -14 0 -10 -5 -22 -11 -26 -7 -4
-8 -9 0 -17 7 -7 15 -6 26 3 13 11 15 10 12 -9 -2 -12 -8 -26 -14 -32 -7 -7
-8 -22 -3 -40 5 -17 5 -29 -1 -29 -5 0 -9 7 -9 15 0 8 -7 15 -15 15 -18 0 -18
-5 -5 -31 7 -12 7 -19 1 -19 -6 0 -15 9 -22 21 l-11 21 -19 -21 c-11 -12 -17
-26 -14 -31 3 -6 -5 -10 -19 -10 -14 0 -29 0 -33 -1 -4 0 -9 4 -11 9 -2 6 6 8
16 5 21 -5 39 12 22 22 -5 3 -10 1 -10 -4 0 -6 -4 -11 -10 -11 -5 0 -6 8 -3
17 5 14 3 13 -14 -3 -11 -10 -18 -24 -16 -30 2 -6 -3 -14 -13 -18 -11 -4 -15
-2 -11 6 6 18 -10 58 -24 58 -8 0 -8 -4 -1 -13 7 -8 7 -18 2 -27 -8 -13 -12
-11 -25 7 -8 12 -25 24 -38 26 -19 4 -18 4 5 6 32 1 50 28 37 53 -6 12 -6 18
1 18 5 0 10 10 10 22 0 21 0 21 -15 2 -8 -10 -15 -14 -15 -7 0 6 -3 19 -7 29
-5 14 -3 16 11 11 11 -4 15 -3 10 4 -4 8 1 9 16 4 21 -7 23 -5 16 25 -3 18 -6
39 -6 46 0 8 -6 11 -16 7 -8 -3 -13 -12 -10 -19 4 -10 0 -11 -18 -5 -17 7 -25
5 -35 -10 -10 -17 -9 -20 5 -17 9 2 19 -2 21 -7 2 -6 -6 -11 -17 -11 -11 0
-23 9 -26 19 -4 14 -8 16 -14 7 -14 -22 1 -48 32 -54 17 -3 27 -10 23 -16 -4
-6 -1 -18 6 -26 7 -9 14 -25 16 -36 3 -16 -1 -19 -17 -15 -11 3 -20 1 -20 -4
0 -4 -7 -6 -15 -3 -8 4 -15 17 -15 29 0 13 -6 26 -12 28 -8 4 -4 8 10 12 12 4
22 11 22 16 0 15 -32 10 -52 -8 -10 -9 -18 -11 -18 -6 0 6 7 14 16 17 8 3 12
10 9 16 -4 6 -11 7 -17 4 -8 -5 -9 -1 -4 12 15 38 18 84 7 98 -8 10 -9 15 -1
18 6 2 13 17 15 33 5 41 7 44 12 19 3 -15 10 -20 21 -17z m55 -8 c-6 -6 -9
-19 -7 -28 3 -9 -1 -6 -8 7 -9 19 -9 25 2 32 18 11 27 3 13 -11z m33 -26 c-10
-10 -19 5 -10 18 6 11 8 11 12 0 2 -7 1 -15 -2 -18z m-159 -15 c-3 -8 -6 -5
-6 6 -1 11 2 17 5 13 3 -3 4 -12 1 -19z m-17 -13 c7 -9 8 -15 2 -15 -5 0 -12
7 -16 15 -3 8 -4 15 -2 15 2 0 9 -7 16 -15z m330 0 c-7 -8 -17 -15 -22 -15
-11 0 14 29 26 30 5 0 3 -7 -4 -15z m-290 -45 c0 -5 -2 -10 -4 -10 -3 0 -8 5
-11 10 -3 6 -1 10 4 10 6 0 11 -4 11 -10z m25 -151 c11 -17 -1 -21 -15 -4 -8
9 -8 15 -2 15 6 0 14 -5 17 -11z m55 -69 c0 -5 -5 -10 -11 -10 -5 0 -7 5 -4
10 3 6 8 10 11 10 2 0 4 -4 4 -10z"/>
<path d="M3055 4260 c3 -5 8 -10 11 -10 2 0 4 5 4 10 0 6 -5 10 -11 10 -5 0
-7 -4 -4 -10z"/>
<path d="M2070 4159 c0 -5 5 -7 10 -4 6 3 10 8 10 11 0 2 -4 4 -10 4 -5 0 -10
-5 -10 -11z"/>
<path d="M2337 4073 c-4 -3 -7 -18 -7 -32 0 -28 14 -19 25 17 6 21 -4 30 -18
15z"/>
<path d="M2557 4023 c-4 -3 -7 -11 -7 -17 0 -6 5 -5 12 2 6 6 9 14 7 17 -3 3
-9 2 -12 -2z"/>
<path d="M2595 4020 c-3 -6 1 -7 9 -4 18 7 21 14 7 14 -6 0 -13 -4 -16 -10z"/>
<path d="M2775 3960 c-10 -11 -14 -20 -9 -20 5 0 2 -5 -6 -10 -8 -5 -10 -10
-5 -10 17 0 32 14 37 38 7 27 6 27 -17 2z"/>
<path d="M2725 3960 c-3 -5 -1 -10 4 -10 6 0 11 5 11 10 0 6 -2 10 -4 10 -3 0
-8 -4 -11 -10z"/>
<path d="M2315 3939 c-4 -6 -5 -12 -2 -15 2 -3 7 2 10 11 7 17 1 20 -8 4z"/>
<path d="M2802 3908 c-7 -7 -12 -16 -12 -21 0 -5 7 -1 16 8 9 9 14 18 12 20
-2 3 -10 -1 -16 -7z"/>
<path d="M2896 3875 c-26 -24 -28 -45 -4 -45 6 0 8 9 5 20 -3 13 0 20 8 20 14
0 30 18 23 26 -3 2 -17 -7 -32 -21z"/>
<path d="M2835 3811 c-3 -5 -1 -12 4 -15 5 -3 11 1 15 9 6 16 -9 21 -19 6z"/>
<path d="M2811 3774 c0 -11 3 -14 6 -6 3 7 2 16 -1 19 -3 4 -6 -2 -5 -13z"/>
<path d="M2854 3755 c4 -11 -1 -15 -17 -15 -17 0 -19 -2 -8 -9 8 -5 20 -7 27
-4 20 7 24 31 7 37 -11 4 -14 2 -9 -9z"/>
<path d="M2360 3719 c0 -5 5 -7 10 -4 6 3 10 8 10 11 0 2 -4 4 -10 4 -5 0 -10
-5 -10 -11z"/>
<path d="M2857 3703 c-10 -9 -9 -23 2 -23 5 0 11 7 15 15 5 15 -5 20 -17 8z"/>
<path d="M2758 3663 c7 -3 16 -2 19 1 4 3 -2 6 -13 5 -11 0 -14 -3 -6 -6z"/>
<path d="M2885 3660 c-3 -5 -1 -10 4 -10 6 0 11 5 11 10 0 6 -2 10 -4 10 -3 0
-8 -4 -11 -10z"/>
<path d="M2620 3629 c0 -5 5 -7 10 -4 6 3 10 8 10 11 0 2 -4 4 -10 4 -5 0 -10
-5 -10 -11z"/>
<path d="M2550 3620 c-9 -6 -10 -10 -3 -10 6 0 15 5 18 10 8 12 4 12 -15 0z"/>
<path d="M2433 3601 c-40 -22 -33 -31 21 -30 30 2 34 3 14 6 -29 4 -39 23 -13
23 8 0 15 5 15 10 0 12 2 13 -37 -9z"/>
<path d="M2670 3609 c0 -5 5 -7 10 -4 6 3 10 8 10 11 0 2 -4 4 -10 4 -5 0 -10
-5 -10 -11z"/>
<path d="M2552 3586 c-33 -19 -38 -26 -16 -26 11 0 25 9 32 20 7 11 11 20 10
19 -2 -1 -13 -7 -26 -13z"/>
<path d="M2535 3530 c3 -5 11 -10 16 -10 6 0 7 5 4 10 -3 6 -11 10 -16 10 -6
0 -7 -4 -4 -10z"/>
<path d="M2628 3518 c5 -5 16 -8 23 -6 8 3 3 7 -10 11 -17 4 -21 3 -13 -5z"/>
<path d="M2225 3070 c-3 -5 -1 -10 4 -10 6 0 11 5 11 10 0 6 -2 10 -4 10 -3 0
-8 -4 -11 -10z"/>
<path d="M2065 3019 c-4 -5 -12 -6 -18 -3 -7 4 -4 -1 5 -11 15 -16 18 -16 32
-2 13 13 13 16 1 21 -8 3 -17 1 -20 -5z"/>
<path d="M2106 2884 c-4 -9 -4 -19 -2 -21 8 -8 26 8 26 23 0 19 -16 18 -24 -2z"/>
<path d="M1905 2820 c-3 -5 -1 -10 4 -10 6 0 11 5 11 10 0 6 -2 10 -4 10 -3 0
-8 -4 -11 -10z"/>
<path d="M1970 2780 c6 -11 15 -18 20 -15 13 8 0 35 -16 35 -12 0 -12 -4 -4
-20z"/>
<path d="M4225 2504 c-9 -9 -14 -18 -12 -20 7 -8 35 7 41 22 7 19 -9 18 -29
-2z"/>
<path d="M4391 2476 c-10 -12 -6 -26 10 -26 11 0 19 29 10 35 -5 2 -14 -1 -20
-9z"/>
<path d="M4083 2454 c-8 -22 1 -26 32 -14 24 9 27 8 23 -8 -3 -12 2 -24 14
-31 13 -8 18 -9 13 -1 -4 6 -2 17 4 24 12 15 5 19 -52 36 -21 7 -29 5 -34 -6z"/>
<path d="M4270 2440 c0 -14 5 -18 17 -13 11 4 13 8 5 11 -7 2 -10 8 -6 13 3 5
0 9 -5 9 -6 0 -11 -9 -11 -20z"/>
<path d="M4206 2428 c-8 -32 -7 -38 5 -38 6 0 9 7 6 15 -4 8 -2 17 3 20 12 8
13 25 1 25 -5 0 -11 -10 -15 -22z"/>
<path d="M4090 2405 c-6 -16 -18 -35 -28 -42 -12 -10 -13 -16 -5 -19 7 -3 9
-13 6 -22 -4 -11 -3 -14 4 -7 13 13 45 107 38 113 -2 3 -9 -8 -15 -23z"/>
<path d="M4251 2387 c-14 -36 -14 -37 3 -37 18 0 25 20 16 45 -7 18 -9 18 -19
-8z"/>
<path d="M4191 2367 c-15 -19 -2 -29 15 -12 8 7 14 16 14 19 0 11 -17 6 -29
-7z"/>
<path d="M4360 2360 c0 -11 4 -20 9 -20 11 0 22 26 14 34 -12 12 -23 5 -23
-14z"/>
<path d="M4210 2330 c0 -5 7 -10 15 -10 8 0 15 -5 15 -12 0 -6 3 -8 6 -5 8 8
-14 37 -27 37 -5 0 -9 -4 -9 -10z"/>
<path d="M4119 2325 c-1 -3 -2 -8 -3 -12 -1 -5 -5 -14 -9 -20 -6 -9 -3 -11 7
-7 9 3 16 15 16 25 0 17 -8 27 -11 14z"/>
<path d="M4290 2315 c-11 -13 -10 -14 4 -9 9 3 16 10 16 15 0 13 -6 11 -20 -6z"/>
<path d="M4366 2323 c-14 -4 -16 -7 -6 -13 11 -7 11 -11 1 -24 -11 -13 -9 -13
19 -3 20 8 26 13 16 15 -19 4 -21 18 -3 25 15 7 -2 6 -27 0z"/>
<path d="M4225 2190 c-3 -5 -1 -10 4 -10 6 0 11 5 11 10 0 6 -2 10 -4 10 -3 0
-8 -4 -11 -10z"/>
<path d="M1531 1294 c-30 -39 -26 -51 5 -14 15 17 24 33 21 36 -2 3 -14 -7
-26 -22z"/>
<path d="M1380 1280 c0 -5 5 -10 10 -10 6 0 10 5 10 10 0 6 -4 10 -10 10 -5 0
-10 -4 -10 -10z"/>
<path d="M4965 1060 c3 -5 8 -10 11 -10 2 0 4 5 4 10 0 6 -5 10 -11 10 -5 0
-7 -4 -4 -10z"/>
<path d="M4973 876 c0 -16 4 -23 13 -19 10 4 11 10 3 24 -13 25 -16 24 -16 -5z"/>
<path d="M988 5551 c23 -17 51 -45 61 -61 20 -34 27 -119 11 -150 -5 -11 -14
-29 -20 -40 -5 -11 -10 -21 -10 -23 0 -2 44 40 98 93 53 53 112 102 130 109
17 7 32 20 32 27 0 9 -17 2 -49 -20 -46 -33 -50 -34 -72 -18 -21 14 -22 14
-16 -1 4 -11 -1 -18 -14 -22 -24 -8 -79 38 -79 66 0 21 -45 55 -86 65 -27 6
-26 4 14 -25z"/>
<path d="M545 5411 c6 -5 33 -11 60 -14 31 -4 41 -3 25 2 -46 14 -95 22 -85
12z"/>
<path d="M1427 5352 c1 -21 2 -43 2 -50 1 -7 5 -11 10 -7 5 3 11 -7 13 -22 3
-26 7 -28 46 -29 39 -1 42 1 42 25 0 19 -14 38 -48 67 -66 57 -67 57 -65 16z"/>
<path d="M790 5332 c66 -33 80 -44 117 -101 42 -65 73 -159 73 -228 1 -37 1
-38 18 -17 24 28 62 36 86 18 41 -30 34 -12 -13 34 -63 61 -80 111 -59 176 16
49 8 54 -11 7 -16 -38 -39 -32 -82 25 -36 48 -83 84 -141 109 -71 29 -63 15
12 -23z m248 -280 c6 -18 -15 -14 -22 4 -4 10 -1 14 6 12 6 -2 14 -10 16 -16z"/>
<path d="M2470 5213 c-24 -5 -23 -5 9 -19 37 -16 58 -10 40 12 -6 8 -14 13
-18 13 -3 -1 -17 -4 -31 -6z"/>
<path d="M440 5146 c0 -2 8 -10 18 -17 15 -13 16 -12 3 4 -13 16 -21 21 -21
13z"/>
<path d="M460 5105 c0 -5 79 -43 172 -83 103 -44 168 -122 168 -200 0 -30 4
-39 18 -39 9 0 19 3 22 7 3 4 25 18 49 31 71 39 76 43 80 69 1 14 8 34 13 45
6 11 -7 1 -28 -21 -42 -44 -98 -78 -117 -71 -7 3 -18 25 -24 50 -10 38 -21 52
-60 78 -27 18 -57 40 -68 49 -43 37 -225 106 -225 85z"/>
<path d="M5309 4901 c-137 -47 -187 -79 -300 -191 -113 -113 -145 -163 -176
-280 -22 -85 -21 -202 2 -255 10 -22 18 -45 16 -52 -1 -7 10 -15 24 -19 13 -3
22 -10 19 -15 -3 -5 -11 -6 -17 -2 -7 4 -5 -1 3 -11 13 -17 15 -15 27 21 12
31 12 46 1 83 -7 25 -13 88 -13 140 1 81 4 103 27 151 68 148 201 305 298 352
59 29 190 108 174 105 -5 0 -43 -13 -85 -27z"/>
<path d="M6110 4866 c-51 -50 -77 -67 -120 -79 l-55 -16 -32 -85 c-37 -96 -54
-186 -44 -225 7 -23 25 -33 26 -13 1 4 4 20 8 35 7 25 10 27 25 16 14 -11 15
-11 5 1 -19 21 -16 40 17 121 24 59 42 85 93 134 35 33 74 67 87 75 36 24 65
54 68 72 5 34 -15 25 -78 -36z"/>
<path d="M508 4753 c7 -3 18 -17 23 -31 8 -21 12 -23 19 -12 7 11 3 20 -13 32
-12 10 -26 17 -32 17 -5 0 -4 -3 3 -6z"/>
<path d="M769 4733 c-13 -16 -12 -17 4 -4 9 7 17 15 17 17 0 8 -8 3 -21 -13z"/>
<path d="M1147 4684 c-21 -14 -40 -31 -44 -39 -3 -8 -8 -13 -13 -10 -13 8 -72
-43 -149 -129 -103 -114 -169 -165 -235 -180 -41 -10 -129 11 -173 41 l-38 25
30 -32 c42 -44 76 -60 132 -60 84 0 155 43 292 176 66 65 121 124 121 131 0 7
7 13 16 13 10 0 39 20 65 45 54 50 53 56 -4 19z"/>
<path d="M6308 4581 c-73 -6 -79 -8 -108 -41 -17 -19 -49 -62 -71 -94 -37 -57
-38 -60 -22 -78 17 -19 18 -19 26 13 10 39 33 65 40 46 4 -8 6 -7 6 3 1 17 58
68 86 76 11 3 40 15 65 26 25 11 46 20 48 19 4 -2 32 27 32 33 0 3 -6 5 -12 4
-7 -1 -48 -4 -90 -7z"/>
<path d="M6662 4454 c10 -10 20 -16 22 -13 3 3 -5 11 -17 18 -21 13 -21 12 -5
-5z"/>
<path d="M6314 4231 c-10 -2 -24 -7 -29 -11 -6 -5 -41 -11 -77 -13 -68 -4 -90
-16 -102 -54 -8 -24 39 -70 92 -92 21 -9 38 -26 47 -47 8 -19 19 -34 25 -34 7
0 7 6 1 18 -12 20 -24 69 -24 97 -1 27 28 69 42 60 6 -3 11 0 11 7 0 8 3 9 8
3 10 -15 22 -12 56 10 28 18 29 18 42 0 8 -10 17 -16 20 -12 4 4 14 1 22 -6
13 -10 14 -9 5 8 -30 54 -78 78 -139 66z"/>
<path d="M6635 4000 c-6 -10 52 -90 65 -90 7 0 5 25 -6 78 -3 15 -12 22 -29
22 -13 0 -27 -4 -30 -10z"/>
</g>
</svg>
